PathFileType	4	(X/Y/Z)	Patient4_TMGait_0pt3_03_left_26.trc.trc
DataRate	CameraRate	NumFrames	NumMarkers	Units	OrigDataRate	OrigDataStartFrame	OrigNumFrames
54.474708171206	54.474708171206	4	33	mm	54.474708171206	124	       141
Frame#	Time	Sacral			L.Shoulder			Chest			R.Shoulder			Neck			R.ASIS			L.ASIS			R.Thigh.Superior			R.Thigh.Lateral			R.Thigh.Inferior			R.Patella			L.Thigh.Superior			L.Thigh.Lateral			L.Thigh.Inferior			L.Patella			L.Shank.Superior			L.Shank.Lateral			L.Shank.Inferior			R.Shank.Superior			R.Shank.Lateral			R.Shank.Inferior			R.Heel			R.Midfoot.Superior			R.Midfoot.Lateral			R.Toe			L.Heel			L.Midfoot.Lateral			L.Midfoot.Superior			L.Toe			L.Elbow			L.Wrist			R.Elbow			R.Wrist			
		X1	Y1	Z1	X2	Y2	Z2	X3	Y3	Z3	X4	Y4	Z4	X5	Y5	Z5	X6	Y6	Z6	X7	Y7	Z7	X8	Y8	Z8	X9	Y9	Z9	X10	Y10	Z10	X11	Y11	Z11	X12	Y12	Z12	X13	Y13	Z13	X14	Y14	Z14	X15	Y15	Z15	X16	Y16	Z16	X17	Y17	Z17	X18	Y18	Z18	X19	Y19	Z19	X20	Y20	Z20	X21	Y21	Z21	X22	Y22	Z22	X23	Y23	Z23	X24	Y24	Z24	X25	Y25	Z25	X26	Y26	Z26	X27	Y27	Z27	X28	Y28	Z28	X29	Y29	Z29	X30	Y30	Z30	X31	Y31	Z31	X32	Y32	Z32	X33	Y33	Z33	

124	47.967928571429	702.090388604444	1003.952826685551	587.446831238527	846.509924150943	1420.678120063588	362.921869029952	979.012267439682	1354.404867361616	502.066464106761	935.490201758123	1437.101699733531	684.224367415191	859.898672973849	1486.683348430883	516.136368528705	944.606854344713	931.418077531623	663.472650295883	886.043402403327	952.514712460282	394.542768279306	953.374855261948	722.033166228870	625.794576722497	867.921892703571	618.496082109487	695.348706390109	921.617556267364	561.168934822983	602.944315257197	908.600892833908	472.340977090195	606.450620823673	961.491413095359	763.103834846606	420.748011453261	899.403153664853	635.831602969322	349.174162522330	1000.718658548089	574.610498904656	408.714024992486	1021.340589804240	511.585706544860	408.174452894748	1007.877917901588	440.773567101581	394.743560591290	946.202924501999	311.721422133590	337.248037151411	1033.069142942878	212.442786618018	392.751592135807	866.414546898643	387.665921671704	618.329785978988	788.465557306106	294.304553361922	689.302688849524	803.587800195322	197.349132371595	620.898927087929	643.468095960878	43.358556750397	605.739427429487	818.290530567639	96.453595382991	628.462140361983	731.535978351817	36.863786773010	674.445703032254	938.523016350879	43.383765010450	649.280704788473	946.725274136166	37.997069212521	422.727434657891	1025.896895413355	39.451202538936	347.448490131530	1098.306124101636	113.152274707187	373.910638274550	1231.883014555187	78.264832448739	356.103285964567	696.769482102705	1096.379417061582	297.043273196021	657.525589790372	840.204156148911	340.479715899294	1150.775457250335	1200.032417631825	808.722942345968	1376.667418424099	1303.392721631795	750.190056346950	
125	47.986285714286	703.148344521575	1003.239791272934	583.822684222406	846.680787347510	1419.709269269145	358.598907249911	979.416860854960	1353.802397105354	497.744417001857	935.797212612635	1436.532858964438	679.807563119590	860.088567028238	1485.949984406704	511.781722360229	945.678971655154	931.065885985431	660.353200383187	887.304041832086	951.179370636774	391.359620891249	952.591227920677	720.918023756299	623.609392825977	865.713227737199	618.373002377581	693.525386392445	918.463860570571	560.205461651330	601.412211598513	904.220783480000	471.725418504707	605.065097343231	962.733067056807	761.799332196360	418.329960483075	899.598212140638	634.266513299923	347.726398358476	1001.020208442974	573.384771618837	406.916263002686	1020.259643988516	509.691542827540	406.963866167353	1006.992698662788	438.565796552190	393.558273676756	944.199011947342	309.926957534434	336.802330967981	1029.994284704767	210.223566493505	392.875384695028	861.885363501283	387.240682721194	617.305594759136	783.674799432316	294.361186299382	688.698735490966	798.493672363256	197.164788823761	620.535410967053	637.939476955911	43.235897684439	605.739174653504	812.841023296119	96.441685641987	628.390571209692	726.023056399346	36.756481848444	674.441239183495	932.993275521120	43.470739558801	649.239522642393	941.669856961885	37.470359894178	423.362225490391	1020.518871086933	38.434784657614	347.624376728100	1094.051718202865	110.663481317641	374.613029699080	1227.103987341932	73.857960125017	355.967669398986	697.625729620124	1094.765141344259	294.570646224037	658.286878204241	838.723765363873	339.374752348980	1153.778150277237	1202.326001040489	803.125895681700	1377.914271804935	1309.092459499975	743.909936998691	
126	48.004642857143	704.238031719963	1002.510497604737	580.042412673477	847.053242353331	1418.625231638946	354.072354756063	979.956601592692	1353.143025279839	493.300347127366	936.172685802199	1435.940911759059	675.269992796621	860.412471448761	1485.180805665998	507.214589785683	946.799751471043	930.644979165524	657.116924380493	888.675739345540	949.901325966240	388.043864452581	951.975796903221	719.768075196777	621.262015506493	863.776935993174	618.179876107477	691.497003548611	915.662386675858	559.225580089554	599.677143453010	900.259346075081	471.013866044071	603.471816540208	964.428531029729	760.916655663878	416.181176749504	900.810235737549	633.110431028704	346.263719633668	1002.237660114969	572.565587722826	405.297042916573	1020.148832812891	508.047515086931	405.838470704713	1006.890008994825	436.529498451112	392.452266900509	942.726370240118	308.451176931197	336.242491853254	1027.005396451731	208.050398133991	393.057499719853	857.658851948111	386.757315515108	616.101072617351	779.120879337858	294.455370768358	687.954780458866	793.540038643728	196.976726628878	620.083764767861	632.444427779635	43.176359256256	605.723766056641	807.438728274906	96.440188440346	628.290375731128	720.546851876375	36.684866435283	674.405172039937	927.506836743660	43.504627630922	649.206547809871	936.138659348996	37.098326035278	424.007853071944	1014.684868740526	37.462477235924	347.818457201910	1089.489244273618	108.129558634505	375.350495406076	1221.957958788309	69.185507374635	355.908812131284	699.221792889239	1092.761642911012	291.447343984811	660.259922739381	836.722583476411	337.046460023638	1156.097873466499	1203.693932708075	797.630336803403	1378.955154851385	1312.980583533422	737.893381737187	
127	48.023000000000	705.324743638495	1001.859083406584	576.117955617004	847.613783369286	1417.523424134898	349.409092866569	980.625193735508	1352.495454841978	488.782314883936	936.640036658842	1435.401089709982	670.660364113254	860.868983517835	1484.452694499639	502.496133943205	947.904623839579	930.206890307049	653.772825772039	890.124825042489	948.786567103322	384.595062591320	951.438240083950	718.640228768333	618.750135673233	862.035952359246	617.969268624684	689.270572217438	913.170504074638	558.278458920291	597.757882591278	896.688464336107	470.244975711600	601.700476905542	966.499304969215	760.512904119471	414.251272788305	902.921339832277	632.413856520489	344.715013544655	1004.234696457830	572.156242624169	403.777591954550	1020.925930399893	506.726290134618	404.750606581041	1007.492309250735	434.759924053105	391.399944389165	941.837262016754	307.358056258039	335.483341416788	1024.199644525721	206.061624734554	393.243202597011	853.716987941025	386.266499522933	614.739465199051	774.774603551216	294.632695268396	687.073445140527	788.718007229269	196.827697759205	619.549194301616	626.985613395262	43.240620605226	605.689777050418	802.095969694062	96.463460720393	628.163700348921	715.109425740120	36.689529517667	674.333430598282	922.065695513133	43.468542378234	649.183723619180	930.412188809373	36.879961653577	424.567040353492	1008.716304082621	36.612074275837	347.982379038317	1084.801590484988	105.766680800694	376.061183710147	1216.688245485253	64.684874471061	355.959304281028	701.496245108862	1090.517570664046	287.668512350627	663.465968336880	834.331102641505	333.444433343169	1157.770659898326	1204.168798393370	792.255166298046	1379.848419836312	1315.090701926500	732.127971220036	
